<?xml version="1.0" standalone="no"?>
<!DOCTYPE svg PUBLIC "-//W3C//DTD SVG 20010904//EN"
 "http://www.w3.org/TR/2001/REC-SVG-20010904/DTD/svg10.dtd">
<svg version="1.0" xmlns="http://www.w3.org/2000/svg"
 width="1200.000000pt" height="1200.000000pt" viewBox="0 0 1200.000000 1200.000000"
 preserveAspectRatio="xMidYMid meet">
<metadata>
Created by potrace 1.11, written by Peter Selinger 2001-2013
</metadata>
<g transform="translate(0.000000,1200.000000) scale(0.100000,-0.100000)"
fill="#000000" stroke="none">
<path d="M3000 6460 l0 -3000 3000 0 3000 0 0 3000 0 3000 -3000 0 -3000 0 0
-3000z m3195 2120 c209 -11 314 -26 482 -70 449 -116 755 -382 882 -768 47
-139 64 -264 64 -457 0 -255 -35 -422 -128 -610 -111 -226 -305 -412 -558
-536 -45 -23 -66 -38 -62 -47 3 -8 210 -401 460 -874 250 -474 455 -869 455
-879 0 -18 -19 -19 -473 -19 l-473 0 -399 780 -399 780 -351 0 -350 0 3 -780
2 -780 -440 0 -440 0 0 2135 0 2135 768 0 c422 0 852 -5 957 -10z"/>
<path d="M5350 7231 l0 -641 353 0 c466 0 581 13 724 81 155 74 260 208 304
389 19 78 16 279 -4 360 -57 219 -197 362 -414 422 -74 21 -103 22 -520 26
l-443 3 0 -640z"/>
</g>
</svg>
