<?xml version="1.0" standalone="no"?>
<!DOCTYPE svg PUBLIC "-//W3C//DTD SVG 20010904//EN"
 "http://www.w3.org/TR/2001/REC-SVG-20010904/DTD/svg10.dtd">
<svg version="1.0" xmlns="http://www.w3.org/2000/svg"
 width="260.000000pt" height="260.000000pt" viewBox="0 0 260.000000 260.000000"
 preserveAspectRatio="xMidYMid meet">
<metadata>
Created by potrace 1.11, written by Peter Selinger 2001-2013
</metadata>
<g transform="translate(0.000000,260.000000) scale(0.100000,-0.100000)"
fill="#000000" stroke="none">
<path d="M1240 2589 c-25 -4 -57 -12 -72 -18 -17 -6 -38 -7 -58 -1 -17 5 -38
7 -48 6 -9 -2 -36 -7 -59 -11 -82 -13 -151 -96 -201 -242 -24 -69 -30 -78 -53
-80 -134 -10 -282 -109 -347 -232 -132 -246 -43 -563 186 -669 75 -34 144 -48
242 -50 92 -1 187 -30 176 -55 -2 -6 -10 -31 -17 -55 -11 -42 -12 -43 -50 -37
-72 11 -118 -10 -185 -86 -11 -13 -40 -35 -64 -49 -24 -14 -56 -45 -72 -69
-53 -84 -29 -194 52 -240 21 -11 46 -33 56 -48 36 -56 113 -102 171 -103 l32
0 -19 -43 c-24 -52 -26 -139 -4 -204 9 -26 18 -62 20 -80 11 -110 126 -175
306 -173 51 1 91 -6 132 -20 75 -27 226 -29 301 -5 28 9 87 20 132 25 88 9
152 36 178 77 8 12 18 53 21 90 3 37 7 79 8 93 1 14 -4 43 -12 65 -7 22 -15
58 -17 81 -3 38 1 45 65 112 76 81 131 182 174 322 95 310 17 454 -188 345
-37 -19 -68 -35 -71 -35 -2 0 -14 18 -25 40 -20 39 -101 110 -126 110 -22 0
-25 16 -9 54 8 19 15 60 15 90 0 52 3 58 44 100 57 57 77 96 83 166 4 44 1 65
-15 96 -23 44 -80 100 -118 114 -22 9 -24 14 -20 69 2 33 -1 78 -6 101 -14 54
-69 108 -126 123 -32 9 -47 19 -55 37 -62 154 -123 233 -205 268 -61 25 -97
31 -152 21z"/>
</g>
</svg>
